<?xml version="1.0" standalone="no"?><!DOCTYPE svg PUBLIC "-//W3C//DTD SVG 1.1//EN" "http://www.w3.org/Graphics/SVG/1.1/DTD/svg11.dtd"><svg t="1632560841177" class="icon" viewBox="0 0 1024 1024" version="1.1" xmlns="http://www.w3.org/2000/svg" p-id="3190" xmlns:xlink="http://www.w3.org/1999/xlink" width="200" height="200"><defs><style type="text/css"></style></defs><path d="M65.828571 41.447619L24.380952 980.114286c0 24.380952 19.504762 43.885714 43.885715 43.885714h885.028571c24.380952 0 46.32381-19.504762 43.885714-43.885714L963.047619 41.447619c0-21.942857-19.504762-41.447619-43.885714-41.447619H109.714286c-24.380952 0-43.885714 17.066667-43.885715 41.447619zM787.504762 292.571429v4.87619c0 153.6-124.342857 275.504762-275.504762 275.504762S236.495238 448.609524 236.495238 297.447619c0-2.438095 0-7.314286 2.438095-9.752381-17.066667-9.752381-26.819048-29.257143-26.819047-48.761905 0-34.133333 26.819048-58.514286 58.514285-58.514285s58.514286 26.819048 58.514286 58.514285c0 29.257143-21.942857 53.638095-48.761905 58.514286 0 126.780952 104.838095 231.619048 231.619048 231.619048s231.619048-104.838095 231.619048-231.619048v-2.438095c-24.380952-7.314286-41.447619-29.257143-41.447619-56.076191 0-34.133333 26.819048-58.514286 58.514285-58.514285s58.514286 26.819048 58.514286 58.514285c2.438095 24.380952-12.190476 43.885714-31.695238 53.638096z" fill="#EA5148" p-id="3191"></path></svg>